<svg xmlns="http://www.w3.org/2000/svg" viewBox="0 0 20 20" shape-rendering="crispEdges"><rect x="7" y="1" width="6" height="1" fill="#6a5bb5"/><rect x="5" y="2" width="10" height="1" fill="#6a5bb5"/><rect x="4" y="3" width="12" height="1" fill="#6a5bb5"/><rect x="3" y="4" width="2" height="1" fill="#6a5bb5"/><rect x="5" y="4" width="3" height="1" fill="#54479a"/><rect x="8" y="4" width="9" height="1" fill="#6a5bb5"/><rect x="2" y="5" width="2" height="1" fill="#6a5bb5"/><rect x="4" y="5" width="5" height="1" fill="#54479a"/><rect x="9" y="5" width="9" height="1" fill="#6a5bb5"/><rect x="2" y="6" width="2" height="1" fill="#6a5bb5"/><rect x="4" y="6" width="5" height="1" fill="#54479a"/><rect x="9" y="6" width="9" height="1" fill="#6a5bb5"/><rect x="1" y="7" width="3" height="1" fill="#6a5bb5"/><rect x="4" y="7" width="5" height="1" fill="#54479a"/><rect x="9" y="7" width="10" height="1" fill="#6a5bb5"/><rect x="1" y="8" width="4" height="1" fill="#6a5bb5"/><rect x="5" y="8" width="3" height="1" fill="#54479a"/><rect x="8" y="8" width="4" height="1" fill="#6a5bb5"/><rect x="12" y="8" width="3" height="1" fill="#54479a"/><rect x="15" y="8" width="4" height="1" fill="#6a5bb5"/><rect x="1" y="9" width="11" height="1" fill="#6a5bb5"/><rect x="12" y="9" width="3" height="1" fill="#54479a"/><rect x="15" y="9" width="4" height="1" fill="#6a5bb5"/><rect x="1" y="10" width="11" height="1" fill="#6a5bb5"/><rect x="12" y="10" width="3" height="1" fill="#54479a"/><rect x="15" y="10" width="4" height="1" fill="#6a5bb5"/><rect x="1" y="11" width="18" height="1" fill="#6a5bb5"/><rect x="1" y="12" width="6" height="1" fill="#6a5bb5"/><rect x="7" y="12" width="3" height="1" fill="#54479a"/><rect x="10" y="12" width="9" height="1" fill="#6a5bb5"/><rect x="2" y="13" width="4" height="1" fill="#6a5bb5"/><rect x="6" y="13" width="5" height="1" fill="#54479a"/><rect x="11" y="13" width="7" height="1" fill="#6a5bb5"/><rect x="2" y="14" width="4" height="1" fill="#6a5bb5"/><rect x="6" y="14" width="5" height="1" fill="#54479a"/><rect x="11" y="14" width="7" height="1" fill="#6a5bb5"/><rect x="3" y="15" width="3" height="1" fill="#6a5bb5"/><rect x="6" y="15" width="5" height="1" fill="#54479a"/><rect x="11" y="15" width="6" height="1" fill="#6a5bb5"/><rect x="4" y="16" width="3" height="1" fill="#6a5bb5"/><rect x="7" y="16" width="3" height="1" fill="#54479a"/><rect x="10" y="16" width="6" height="1" fill="#6a5bb5"/><rect x="5" y="17" width="10" height="1" fill="#6a5bb5"/><rect x="7" y="18" width="6" height="1" fill="#6a5bb5"/></svg>
