<svg xmlns="http://www.w3.org/2000/svg" viewBox="0 0 260 44" width="260" height="44" shape-rendering="crispEdges"><rect x="0" y="20" width="1" height="24" fill="#1e1159"/><rect x="1" y="20" width="1" height="24" fill="#1e1159"/><rect x="2" y="19" width="1" height="25" fill="#1e1159"/><rect x="3" y="19" width="1" height="25" fill="#1e1159"/><rect x="4" y="19" width="1" height="25" fill="#1e1159"/><rect x="5" y="18" width="1" height="26" fill="#1e1159"/><rect x="6" y="18" width="1" height="26" fill="#1e1159"/><rect x="7" y="18" width="1" height="26" fill="#1e1159"/><rect x="8" y="17" width="1" height="27" fill="#1e1159"/><rect x="9" y="17" width="1" height="27" fill="#1e1159"/><rect x="10" y="16" width="1" height="28" fill="#1e1159"/><rect x="11" y="16" width="1" height="28" fill="#1e1159"/><rect x="12" y="16" width="1" height="28" fill="#1e1159"/><rect x="13" y="15" width="1" height="29" fill="#1e1159"/><rect x="14" y="15" width="1" height="29" fill="#1e1159"/><rect x="15" y="15" width="1" height="29" fill="#1e1159"/><rect x="16" y="14" width="1" height="30" fill="#1e1159"/><rect x="17" y="14" width="1" height="30" fill="#1e1159"/><rect x="18" y="14" width="1" height="30" fill="#1e1159"/><rect x="19" y="13" width="1" height="31" fill="#1e1159"/><rect x="20" y="13" width="1" height="31" fill="#1e1159"/><rect x="21" y="12" width="1" height="32" fill="#1e1159"/><rect x="22" y="12" width="1" height="32" fill="#1e1159"/><rect x="23" y="12" width="1" height="32" fill="#1e1159"/><rect x="24" y="11" width="1" height="33" fill="#1e1159"/><rect x="25" y="11" width="1" height="33" fill="#1e1159"/><rect x="26" y="11" width="1" height="33" fill="#1e1159"/><rect x="27" y="11" width="1" height="33" fill="#1e1159"/><rect x="28" y="11" width="1" height="33" fill="#1e1159"/><rect x="29" y="12" width="1" height="32" fill="#1e1159"/><rect x="30" y="12" width="1" height="32" fill="#1e1159"/><rect x="31" y="12" width="1" height="32" fill="#1e1159"/><rect x="32" y="13" width="1" height="31" fill="#1e1159"/><rect x="33" y="13" width="1" height="31" fill="#1e1159"/><rect x="34" y="13" width="1" height="31" fill="#1e1159"/><rect x="35" y="14" width="1" height="30" fill="#1e1159"/><rect x="36" y="14" width="1" height="30" fill="#1e1159"/><rect x="37" y="15" width="1" height="29" fill="#1e1159"/><rect x="38" y="15" width="1" height="29" fill="#1e1159"/><rect x="39" y="15" width="1" height="29" fill="#1e1159"/><rect x="40" y="16" width="1" height="28" fill="#1e1159"/><rect x="41" y="16" width="1" height="28" fill="#1e1159"/><rect x="42" y="16" width="1" height="28" fill="#1e1159"/><rect x="43" y="17" width="1" height="27" fill="#1e1159"/><rect x="44" y="17" width="1" height="27" fill="#1e1159"/><rect x="45" y="17" width="1" height="27" fill="#1e1159"/><rect x="46" y="18" width="1" height="26" fill="#1e1159"/><rect x="47" y="18" width="1" height="26" fill="#1e1159"/><rect x="48" y="19" width="1" height="25" fill="#1e1159"/><rect x="49" y="19" width="1" height="25" fill="#1e1159"/><rect x="50" y="19" width="1" height="25" fill="#1e1159"/><rect x="51" y="20" width="1" height="24" fill="#1e1159"/><rect x="52" y="20" width="1" height="24" fill="#1e1159"/><rect x="53" y="20" width="1" height="24" fill="#1e1159"/><rect x="54" y="21" width="1" height="23" fill="#1e1159"/><rect x="55" y="21" width="1" height="23" fill="#1e1159"/><rect x="56" y="21" width="1" height="23" fill="#1e1159"/><rect x="57" y="21" width="1" height="23" fill="#1e1159"/><rect x="58" y="20" width="1" height="24" fill="#1e1159"/><rect x="59" y="20" width="1" height="24" fill="#1e1159"/><rect x="60" y="19" width="1" height="25" fill="#1e1159"/><rect x="61" y="19" width="1" height="25" fill="#1e1159"/><rect x="62" y="20" width="1" height="24" fill="#1e1159"/><rect x="63" y="20" width="1" height="24" fill="#1e1159"/><rect x="64" y="21" width="1" height="23" fill="#1e1159"/><rect x="65" y="21" width="1" height="23" fill="#1e1159"/><rect x="66" y="22" width="1" height="22" fill="#1e1159"/><rect x="67" y="23" width="1" height="21" fill="#1e1159"/><rect x="68" y="23" width="1" height="21" fill="#1e1159"/><rect x="69" y="24" width="1" height="20" fill="#1e1159"/><rect x="70" y="24" width="1" height="20" fill="#1e1159"/><rect x="71" y="24" width="1" height="20" fill="#1e1159"/><rect x="72" y="24" width="1" height="20" fill="#1e1159"/><rect x="73" y="25" width="1" height="19" fill="#1e1159"/><rect x="74" y="25" width="1" height="19" fill="#1e1159"/><rect x="75" y="25" width="1" height="19" fill="#1e1159"/><rect x="76" y="25" width="1" height="19" fill="#1e1159"/><rect x="77" y="25" width="1" height="19" fill="#1e1159"/><rect x="78" y="26" width="1" height="18" fill="#1e1159"/><rect x="79" y="26" width="1" height="18" fill="#1e1159"/><rect x="80" y="26" width="1" height="18" fill="#1e1159"/><rect x="81" y="27" width="1" height="17" fill="#1e1159"/><rect x="82" y="27" width="1" height="17" fill="#1e1159"/><rect x="83" y="28" width="1" height="16" fill="#1e1159"/><rect x="84" y="28" width="1" height="16" fill="#1e1159"/><rect x="85" y="28" width="1" height="16" fill="#1e1159"/><rect x="86" y="29" width="1" height="15" fill="#1e1159"/><rect x="87" y="29" width="1" height="15" fill="#1e1159"/><rect x="88" y="30" width="1" height="14" fill="#1e1159"/><rect x="89" y="30" width="1" height="14" fill="#1e1159"/><rect x="90" y="30" width="1" height="14" fill="#1e1159"/><rect x="91" y="31" width="1" height="13" fill="#1e1159"/><rect x="92" y="31" width="1" height="13" fill="#1e1159"/><rect x="93" y="32" width="1" height="12" fill="#1e1159"/><rect x="94" y="31" width="1" height="13" fill="#1e1159"/><rect x="95" y="31" width="1" height="13" fill="#1e1159"/><rect x="96" y="30" width="1" height="14" fill="#1e1159"/><rect x="97" y="30" width="1" height="14" fill="#1e1159"/><rect x="98" y="29" width="1" height="15" fill="#1e1159"/><rect x="99" y="29" width="1" height="15" fill="#1e1159"/><rect x="100" y="28" width="1" height="16" fill="#1e1159"/><rect x="101" y="28" width="1" height="16" fill="#1e1159"/><rect x="102" y="27" width="1" height="17" fill="#1e1159"/><rect x="103" y="26" width="1" height="18" fill="#1e1159"/><rect x="104" y="27" width="1" height="17" fill="#1e1159"/><rect x="105" y="27" width="1" height="17" fill="#1e1159"/><rect x="106" y="28" width="1" height="16" fill="#1e1159"/><rect x="107" y="28" width="1" height="16" fill="#1e1159"/><rect x="108" y="29" width="1" height="15" fill="#1e1159"/><rect x="109" y="29" width="1" height="15" fill="#1e1159"/><rect x="110" y="30" width="1" height="14" fill="#1e1159"/><rect x="111" y="31" width="1" height="13" fill="#1e1159"/><rect x="112" y="31" width="1" height="13" fill="#1e1159"/><rect x="113" y="32" width="1" height="12" fill="#1e1159"/><rect x="114" y="32" width="1" height="12" fill="#1e1159"/><rect x="115" y="33" width="1" height="11" fill="#1e1159"/><rect x="116" y="33" width="1" height="11" fill="#1e1159"/><rect x="117" y="33" width="1" height="11" fill="#1e1159"/><rect x="118" y="33" width="1" height="11" fill="#1e1159"/><rect x="119" y="33" width="1" height="11" fill="#1e1159"/><rect x="120" y="33" width="1" height="11" fill="#1e1159"/><rect x="121" y="32" width="1" height="12" fill="#1e1159"/><rect x="122" y="32" width="1" height="12" fill="#1e1159"/><rect x="123" y="31" width="1" height="13" fill="#1e1159"/><rect x="124" y="31" width="1" height="13" fill="#1e1159"/><rect x="125" y="30" width="1" height="14" fill="#1e1159"/><rect x="126" y="30" width="1" height="14" fill="#1e1159"/><rect x="127" y="29" width="1" height="15" fill="#1e1159"/><rect x="128" y="29" width="1" height="15" fill="#1e1159"/><rect x="129" y="28" width="1" height="16" fill="#1e1159"/><rect x="130" y="28" width="1" height="16" fill="#1e1159"/><rect x="131" y="27" width="1" height="17" fill="#1e1159"/><rect x="132" y="26" width="1" height="18" fill="#1e1159"/><rect x="133" y="26" width="1" height="18" fill="#1e1159"/><rect x="134" y="25" width="1" height="19" fill="#1e1159"/><rect x="135" y="25" width="1" height="19" fill="#1e1159"/><rect x="136" y="24" width="1" height="20" fill="#1e1159"/><rect x="137" y="24" width="1" height="20" fill="#1e1159"/><rect x="138" y="23" width="1" height="21" fill="#1e1159"/><rect x="139" y="23" width="1" height="21" fill="#1e1159"/><rect x="140" y="22" width="1" height="22" fill="#1e1159"/><rect x="141" y="22" width="1" height="22" fill="#1e1159"/><rect x="142" y="21" width="1" height="23" fill="#1e1159"/><rect x="143" y="21" width="1" height="23" fill="#1e1159"/><rect x="144" y="20" width="1" height="24" fill="#1e1159"/><rect x="145" y="20" width="1" height="24" fill="#1e1159"/><rect x="146" y="19" width="1" height="25" fill="#1e1159"/><rect x="147" y="18" width="1" height="26" fill="#1e1159"/><rect x="148" y="18" width="1" height="26" fill="#1e1159"/><rect x="149" y="17" width="1" height="27" fill="#1e1159"/><rect x="150" y="17" width="1" height="27" fill="#1e1159"/><rect x="151" y="16" width="1" height="28" fill="#1e1159"/><rect x="152" y="16" width="1" height="28" fill="#1e1159"/><rect x="153" y="15" width="1" height="29" fill="#1e1159"/><rect x="154" y="15" width="1" height="29" fill="#1e1159"/><rect x="155" y="14" width="1" height="30" fill="#1e1159"/><rect x="156" y="14" width="1" height="30" fill="#1e1159"/><rect x="157" y="13" width="1" height="31" fill="#1e1159"/><rect x="158" y="13" width="1" height="31" fill="#1e1159"/><rect x="159" y="12" width="1" height="32" fill="#1e1159"/><rect x="160" y="12" width="1" height="32" fill="#1e1159"/><rect x="161" y="12" width="1" height="32" fill="#1e1159"/><rect x="162" y="13" width="1" height="31" fill="#1e1159"/><rect x="163" y="13" width="1" height="31" fill="#1e1159"/><rect x="164" y="14" width="1" height="30" fill="#1e1159"/><rect x="165" y="15" width="1" height="29" fill="#1e1159"/><rect x="166" y="15" width="1" height="29" fill="#1e1159"/><rect x="167" y="16" width="1" height="28" fill="#1e1159"/><rect x="168" y="16" width="1" height="28" fill="#1e1159"/><rect x="169" y="17" width="1" height="27" fill="#1e1159"/><rect x="170" y="17" width="1" height="27" fill="#1e1159"/><rect x="171" y="18" width="1" height="26" fill="#1e1159"/><rect x="172" y="18" width="1" height="26" fill="#1e1159"/><rect x="173" y="19" width="1" height="25" fill="#1e1159"/><rect x="174" y="19" width="1" height="25" fill="#1e1159"/><rect x="175" y="20" width="1" height="24" fill="#1e1159"/><rect x="176" y="20" width="1" height="24" fill="#1e1159"/><rect x="177" y="21" width="1" height="23" fill="#1e1159"/><rect x="178" y="21" width="1" height="23" fill="#1e1159"/><rect x="179" y="20" width="1" height="24" fill="#1e1159"/><rect x="180" y="20" width="1" height="24" fill="#1e1159"/><rect x="181" y="19" width="1" height="25" fill="#1e1159"/><rect x="182" y="19" width="1" height="25" fill="#1e1159"/><rect x="183" y="18" width="1" height="26" fill="#1e1159"/><rect x="184" y="18" width="1" height="26" fill="#1e1159"/><rect x="185" y="17" width="1" height="27" fill="#1e1159"/><rect x="186" y="17" width="1" height="27" fill="#1e1159"/><rect x="187" y="17" width="1" height="27" fill="#1e1159"/><rect x="188" y="16" width="1" height="28" fill="#1e1159"/><rect x="189" y="16" width="1" height="28" fill="#1e1159"/><rect x="190" y="15" width="1" height="29" fill="#1e1159"/><rect x="191" y="15" width="1" height="29" fill="#1e1159"/><rect x="192" y="14" width="1" height="30" fill="#1e1159"/><rect x="193" y="14" width="1" height="30" fill="#1e1159"/><rect x="194" y="13" width="1" height="31" fill="#1e1159"/><rect x="195" y="13" width="1" height="31" fill="#1e1159"/><rect x="196" y="13" width="1" height="31" fill="#1e1159"/><rect x="197" y="12" width="1" height="32" fill="#1e1159"/><rect x="198" y="12" width="1" height="32" fill="#1e1159"/><rect x="199" y="11" width="1" height="33" fill="#1e1159"/><rect x="200" y="11" width="1" height="33" fill="#1e1159"/><rect x="201" y="11" width="1" height="33" fill="#1e1159"/><rect x="202" y="11" width="1" height="33" fill="#1e1159"/><rect x="203" y="12" width="1" height="32" fill="#1e1159"/><rect x="204" y="12" width="1" height="32" fill="#1e1159"/><rect x="205" y="13" width="1" height="31" fill="#1e1159"/><rect x="206" y="13" width="1" height="31" fill="#1e1159"/><rect x="207" y="13" width="1" height="31" fill="#1e1159"/><rect x="208" y="14" width="1" height="30" fill="#1e1159"/><rect x="209" y="14" width="1" height="30" fill="#1e1159"/><rect x="210" y="15" width="1" height="29" fill="#1e1159"/><rect x="211" y="15" width="1" height="29" fill="#1e1159"/><rect x="212" y="16" width="1" height="28" fill="#1e1159"/><rect x="213" y="16" width="1" height="28" fill="#1e1159"/><rect x="214" y="16" width="1" height="28" fill="#1e1159"/><rect x="215" y="15" width="1" height="29" fill="#1e1159"/><rect x="216" y="15" width="1" height="29" fill="#1e1159"/><rect x="217" y="14" width="1" height="30" fill="#1e1159"/><rect x="218" y="13" width="1" height="31" fill="#1e1159"/><rect x="219" y="13" width="1" height="31" fill="#1e1159"/><rect x="220" y="14" width="1" height="30" fill="#1e1159"/><rect x="221" y="14" width="1" height="30" fill="#1e1159"/><rect x="222" y="15" width="1" height="29" fill="#1e1159"/><rect x="223" y="16" width="1" height="28" fill="#1e1159"/><rect x="224" y="16" width="1" height="28" fill="#1e1159"/><rect x="225" y="17" width="1" height="27" fill="#1e1159"/><rect x="226" y="17" width="1" height="27" fill="#1e1159"/><rect x="227" y="17" width="1" height="27" fill="#1e1159"/><rect x="228" y="17" width="1" height="27" fill="#1e1159"/><rect x="229" y="16" width="1" height="28" fill="#1e1159"/><rect x="230" y="16" width="1" height="28" fill="#1e1159"/><rect x="231" y="15" width="1" height="29" fill="#1e1159"/><rect x="232" y="15" width="1" height="29" fill="#1e1159"/><rect x="233" y="15" width="1" height="29" fill="#1e1159"/><rect x="234" y="15" width="1" height="29" fill="#1e1159"/><rect x="235" y="15" width="1" height="29" fill="#1e1159"/><rect x="236" y="16" width="1" height="28" fill="#1e1159"/><rect x="237" y="16" width="1" height="28" fill="#1e1159"/><rect x="238" y="17" width="1" height="27" fill="#1e1159"/><rect x="239" y="17" width="1" height="27" fill="#1e1159"/><rect x="240" y="17" width="1" height="27" fill="#1e1159"/><rect x="241" y="18" width="1" height="26" fill="#1e1159"/><rect x="242" y="18" width="1" height="26" fill="#1e1159"/><rect x="243" y="18" width="1" height="26" fill="#1e1159"/><rect x="244" y="19" width="1" height="25" fill="#1e1159"/><rect x="245" y="19" width="1" height="25" fill="#1e1159"/><rect x="246" y="20" width="1" height="24" fill="#1e1159"/><rect x="247" y="20" width="1" height="24" fill="#1e1159"/><rect x="248" y="20" width="1" height="24" fill="#1e1159"/><rect x="249" y="21" width="1" height="23" fill="#1e1159"/><rect x="250" y="21" width="1" height="23" fill="#1e1159"/><rect x="251" y="22" width="1" height="22" fill="#1e1159"/><rect x="252" y="22" width="1" height="22" fill="#1e1159"/><rect x="253" y="22" width="1" height="22" fill="#1e1159"/><rect x="254" y="22" width="1" height="22" fill="#1e1159"/><rect x="255" y="22" width="1" height="22" fill="#1e1159"/><rect x="256" y="22" width="1" height="22" fill="#1e1159"/><rect x="257" y="21" width="1" height="23" fill="#1e1159"/><rect x="258" y="21" width="1" height="23" fill="#1e1159"/><rect x="259" y="20" width="1" height="24" fill="#1e1159"/></svg>
