<svg xmlns="http://www.w3.org/2000/svg" viewBox="0 0 24 24" shape-rendering="crispEdges"><rect x="8" y="2" width="8" height="1" fill="#2b1b10"/><rect x="6" y="3" width="1" height="1" fill="#2b1b10"/><rect x="7" y="3" width="10" height="1" fill="#b9b7c9"/><rect x="17" y="3" width="1" height="1" fill="#2b1b10"/><rect x="4" y="4" width="1" height="1" fill="#2b1b10"/><rect x="5" y="4" width="14" height="1" fill="#b9b7c9"/><rect x="19" y="4" width="1" height="1" fill="#2b1b10"/><rect x="3" y="5" width="1" height="1" fill="#2b1b10"/><rect x="4" y="5" width="16" height="1" fill="#b9b7c9"/><rect x="20" y="5" width="1" height="1" fill="#2b1b10"/><rect x="2" y="6" width="1" height="1" fill="#2b1b10"/><rect x="3" y="6" width="18" height="1" fill="#b9b7c9"/><rect x="21" y="6" width="1" height="1" fill="#2b1b10"/><rect x="2" y="7" width="1" height="1" fill="#2b1b10"/><rect x="3" y="7" width="18" height="1" fill="#b9b7c9"/><rect x="21" y="7" width="1" height="1" fill="#2b1b10"/><rect x="2" y="8" width="1" height="1" fill="#2b1b10"/><rect x="3" y="8" width="2" height="1" fill="#b9b7c9"/><rect x="5" y="8" width="4" height="1" fill="#12101c"/><rect x="9" y="8" width="6" height="1" fill="#b9b7c9"/><rect x="15" y="8" width="4" height="1" fill="#12101c"/><rect x="19" y="8" width="2" height="1" fill="#b9b7c9"/><rect x="21" y="8" width="1" height="1" fill="#2b1b10"/><rect x="2" y="9" width="1" height="1" fill="#2b1b10"/><rect x="3" y="9" width="1" height="1" fill="#b9b7c9"/><rect x="4" y="9" width="6" height="1" fill="#12101c"/><rect x="10" y="9" width="4" height="1" fill="#b9b7c9"/><rect x="14" y="9" width="6" height="1" fill="#12101c"/><rect x="20" y="9" width="1" height="1" fill="#b9b7c9"/><rect x="21" y="9" width="1" height="1" fill="#2b1b10"/><rect x="2" y="10" width="1" height="1" fill="#2b1b10"/><rect x="3" y="10" width="1" height="1" fill="#b9b7c9"/><rect x="4" y="10" width="6" height="1" fill="#12101c"/><rect x="10" y="10" width="4" height="1" fill="#b9b7c9"/><rect x="14" y="10" width="6" height="1" fill="#12101c"/><rect x="20" y="10" width="1" height="1" fill="#b9b7c9"/><rect x="21" y="10" width="1" height="1" fill="#2b1b10"/><rect x="2" y="11" width="1" height="1" fill="#2b1b10"/><rect x="3" y="11" width="2" height="1" fill="#b9b7c9"/><rect x="5" y="11" width="4" height="1" fill="#12101c"/><rect x="9" y="11" width="6" height="1" fill="#b9b7c9"/><rect x="15" y="11" width="4" height="1" fill="#12101c"/><rect x="19" y="11" width="2" height="1" fill="#b9b7c9"/><rect x="21" y="11" width="1" height="1" fill="#2b1b10"/><rect x="3" y="12" width="1" height="1" fill="#2b1b10"/><rect x="4" y="12" width="16" height="1" fill="#b9b7c9"/><rect x="20" y="12" width="1" height="1" fill="#2b1b10"/><rect x="4" y="13" width="1" height="1" fill="#2b1b10"/><rect x="5" y="13" width="14" height="1" fill="#b9b7c9"/><rect x="19" y="13" width="1" height="1" fill="#2b1b10"/><rect x="5" y="14" width="1" height="1" fill="#2b1b10"/><rect x="6" y="14" width="12" height="1" fill="#b9b7c9"/><rect x="18" y="14" width="1" height="1" fill="#2b1b10"/><rect x="6" y="15" width="1" height="1" fill="#2b1b10"/><rect x="7" y="15" width="10" height="1" fill="#b9b7c9"/><rect x="17" y="15" width="1" height="1" fill="#2b1b10"/><rect x="7" y="16" width="1" height="1" fill="#2b1b10"/><rect x="8" y="16" width="2" height="1" fill="#b9b7c9"/><rect x="10" y="16" width="1" height="1" fill="#8a8899"/><rect x="11" y="16" width="2" height="1" fill="#b9b7c9"/><rect x="13" y="16" width="1" height="1" fill="#8a8899"/><rect x="14" y="16" width="2" height="1" fill="#b9b7c9"/><rect x="16" y="16" width="1" height="1" fill="#2b1b10"/><rect x="8" y="17" width="1" height="1" fill="#2b1b10"/><rect x="9" y="17" width="6" height="1" fill="#b9b7c9"/><rect x="15" y="17" width="1" height="1" fill="#2b1b10"/><rect x="9" y="18" width="1" height="1" fill="#2b1b10"/><rect x="10" y="18" width="4" height="1" fill="#12101c"/><rect x="14" y="18" width="1" height="1" fill="#2b1b10"/><rect x="10" y="19" width="4" height="1" fill="#2b1b10"/></svg>
