<svg xmlns="http://www.w3.org/2000/svg" viewBox="0 0 24 24" shape-rendering="crispEdges"><rect x="6" y="2" width="12" height="1" fill="#2b1b10"/><rect x="4" y="3" width="2" height="1" fill="#2b1b10"/><rect x="6" y="3" width="12" height="1" fill="#e8b98f"/><rect x="18" y="3" width="2" height="1" fill="#2b1b10"/><rect x="3" y="4" width="1" height="1" fill="#2b1b10"/><rect x="4" y="4" width="16" height="1" fill="#e8b98f"/><rect x="20" y="4" width="1" height="1" fill="#2b1b10"/><rect x="3" y="5" width="1" height="1" fill="#2b1b10"/><rect x="4" y="5" width="2" height="1" fill="#e8b98f"/><rect x="6" y="5" width="2" height="1" fill="#1d0f06"/><rect x="8" y="5" width="8" height="1" fill="#e8b98f"/><rect x="16" y="5" width="2" height="1" fill="#1d0f06"/><rect x="18" y="5" width="2" height="1" fill="#e8b98f"/><rect x="20" y="5" width="1" height="1" fill="#2b1b10"/><rect x="3" y="6" width="1" height="1" fill="#2b1b10"/><rect x="4" y="6" width="16" height="1" fill="#e8b98f"/><rect x="20" y="6" width="1" height="1" fill="#2b1b10"/><rect x="3" y="7" width="1" height="1" fill="#2b1b10"/><rect x="4" y="7" width="7" height="1" fill="#e8b98f"/><rect x="11" y="7" width="2" height="1" fill="#c98f6a"/><rect x="13" y="7" width="7" height="1" fill="#e8b98f"/><rect x="20" y="7" width="1" height="1" fill="#2b1b10"/><rect x="3" y="8" width="1" height="1" fill="#2b1b10"/><rect x="4" y="8" width="16" height="1" fill="#e8b98f"/><rect x="20" y="8" width="1" height="1" fill="#2b1b10"/><rect x="4" y="9" width="1" height="1" fill="#2b1b10"/><rect x="5" y="9" width="6" height="1" fill="#e8b98f"/><rect x="11" y="9" width="2" height="1" fill="#8a4a3a"/><rect x="13" y="9" width="6" height="1" fill="#e8b98f"/><rect x="19" y="9" width="1" height="1" fill="#2b1b10"/><rect x="5" y="10" width="1" height="1" fill="#2b1b10"/><rect x="6" y="10" width="12" height="1" fill="#e8b98f"/><rect x="18" y="10" width="1" height="1" fill="#2b1b10"/><rect x="6" y="11" width="1" height="1" fill="#2b1b10"/><rect x="7" y="11" width="10" height="1" fill="#e8b98f"/><rect x="17" y="11" width="1" height="1" fill="#2b1b10"/><rect x="7" y="12" width="1" height="1" fill="#2b1b10"/><rect x="8" y="12" width="8" height="1" fill="#e8b98f"/><rect x="16" y="12" width="1" height="1" fill="#2b1b10"/><rect x="8" y="13" width="8" height="1" fill="#2b1b10"/><rect x="0" y="15" width="24" height="1" fill="#0e7c57"/></svg>
